<svg xmlns="http://www.w3.org/2000/svg" viewBox="0 0 280 280" width="260" height="260">
  <rect width="280" height="280" fill="#FFFFFF" rx="12"/>
  <rect x="24" y="24" width="8" height="8" fill="#000000"/>
  <rect x="32" y="24" width="8" height="8" fill="#000000"/>
  <rect x="40" y="24" width="8" height="8" fill="#000000"/>
  <rect x="48" y="24" width="8" height="8" fill="#000000"/>
  <rect x="56" y="24" width="8" height="8" fill="#000000"/>
  <rect x="64" y="24" width="8" height="8" fill="#000000"/>
  <rect x="72" y="24" width="8" height="8" fill="#000000"/>
  <rect x="88" y="24" width="8" height="8" fill="#000000"/>
  <rect x="128" y="24" width="8" height="8" fill="#000000"/>
  <rect x="136" y="24" width="8" height="8" fill="#000000"/>
  <rect x="152" y="24" width="8" height="8" fill="#000000"/>
  <rect x="184" y="24" width="8" height="8" fill="#000000"/>
  <rect x="200" y="24" width="8" height="8" fill="#000000"/>
  <rect x="208" y="24" width="8" height="8" fill="#000000"/>
  <rect x="216" y="24" width="8" height="8" fill="#000000"/>
  <rect x="224" y="24" width="8" height="8" fill="#000000"/>
  <rect x="232" y="24" width="8" height="8" fill="#000000"/>
  <rect x="240" y="24" width="8" height="8" fill="#000000"/>
  <rect x="248" y="24" width="8" height="8" fill="#000000"/>
  <rect x="24" y="32" width="8" height="8" fill="#000000"/>
  <rect x="72" y="32" width="8" height="8" fill="#000000"/>
  <rect x="88" y="32" width="8" height="8" fill="#000000"/>
  <rect x="112" y="32" width="8" height="8" fill="#000000"/>
  <rect x="120" y="32" width="8" height="8" fill="#000000"/>
  <rect x="128" y="32" width="8" height="8" fill="#000000"/>
  <rect x="136" y="32" width="8" height="8" fill="#000000"/>
  <rect x="144" y="32" width="8" height="8" fill="#000000"/>
  <rect x="160" y="32" width="8" height="8" fill="#000000"/>
  <rect x="168" y="32" width="8" height="8" fill="#000000"/>
  <rect x="176" y="32" width="8" height="8" fill="#000000"/>
  <rect x="200" y="32" width="8" height="8" fill="#000000"/>
  <rect x="248" y="32" width="8" height="8" fill="#000000"/>
  <rect x="24" y="40" width="8" height="8" fill="#000000"/>
  <rect x="40" y="40" width="8" height="8" fill="#000000"/>
  <rect x="48" y="40" width="8" height="8" fill="#000000"/>
  <rect x="56" y="40" width="8" height="8" fill="#000000"/>
  <rect x="72" y="40" width="8" height="8" fill="#000000"/>
  <rect x="88" y="40" width="8" height="8" fill="#000000"/>
  <rect x="96" y="40" width="8" height="8" fill="#000000"/>
  <rect x="120" y="40" width="8" height="8" fill="#000000"/>
  <rect x="136" y="40" width="8" height="8" fill="#000000"/>
  <rect x="160" y="40" width="8" height="8" fill="#000000"/>
  <rect x="168" y="40" width="8" height="8" fill="#000000"/>
  <rect x="176" y="40" width="8" height="8" fill="#000000"/>
  <rect x="184" y="40" width="8" height="8" fill="#000000"/>
  <rect x="200" y="40" width="8" height="8" fill="#000000"/>
  <rect x="216" y="40" width="8" height="8" fill="#000000"/>
  <rect x="224" y="40" width="8" height="8" fill="#000000"/>
  <rect x="232" y="40" width="8" height="8" fill="#000000"/>
  <rect x="248" y="40" width="8" height="8" fill="#000000"/>
  <rect x="24" y="48" width="8" height="8" fill="#000000"/>
  <rect x="40" y="48" width="8" height="8" fill="#000000"/>
  <rect x="48" y="48" width="8" height="8" fill="#000000"/>
  <rect x="56" y="48" width="8" height="8" fill="#000000"/>
  <rect x="72" y="48" width="8" height="8" fill="#000000"/>
  <rect x="88" y="48" width="8" height="8" fill="#000000"/>
  <rect x="96" y="48" width="8" height="8" fill="#000000"/>
  <rect x="104" y="48" width="8" height="8" fill="#000000"/>
  <rect x="120" y="48" width="8" height="8" fill="#000000"/>
  <rect x="184" y="48" width="8" height="8" fill="#000000"/>
  <rect x="200" y="48" width="8" height="8" fill="#000000"/>
  <rect x="216" y="48" width="8" height="8" fill="#000000"/>
  <rect x="224" y="48" width="8" height="8" fill="#000000"/>
  <rect x="232" y="48" width="8" height="8" fill="#000000"/>
  <rect x="248" y="48" width="8" height="8" fill="#000000"/>
  <rect x="24" y="56" width="8" height="8" fill="#000000"/>
  <rect x="40" y="56" width="8" height="8" fill="#000000"/>
  <rect x="48" y="56" width="8" height="8" fill="#000000"/>
  <rect x="56" y="56" width="8" height="8" fill="#000000"/>
  <rect x="72" y="56" width="8" height="8" fill="#000000"/>
  <rect x="96" y="56" width="8" height="8" fill="#000000"/>
  <rect x="104" y="56" width="8" height="8" fill="#000000"/>
  <rect x="120" y="56" width="8" height="8" fill="#000000"/>
  <rect x="160" y="56" width="8" height="8" fill="#000000"/>
  <rect x="168" y="56" width="8" height="8" fill="#000000"/>
  <rect x="184" y="56" width="8" height="8" fill="#000000"/>
  <rect x="200" y="56" width="8" height="8" fill="#000000"/>
  <rect x="216" y="56" width="8" height="8" fill="#000000"/>
  <rect x="224" y="56" width="8" height="8" fill="#000000"/>
  <rect x="232" y="56" width="8" height="8" fill="#000000"/>
  <rect x="248" y="56" width="8" height="8" fill="#000000"/>
  <rect x="24" y="64" width="8" height="8" fill="#000000"/>
  <rect x="72" y="64" width="8" height="8" fill="#000000"/>
  <rect x="88" y="64" width="8" height="8" fill="#000000"/>
  <rect x="96" y="64" width="8" height="8" fill="#000000"/>
  <rect x="104" y="64" width="8" height="8" fill="#000000"/>
  <rect x="152" y="64" width="8" height="8" fill="#000000"/>
  <rect x="160" y="64" width="8" height="8" fill="#000000"/>
  <rect x="176" y="64" width="8" height="8" fill="#000000"/>
  <rect x="200" y="64" width="8" height="8" fill="#000000"/>
  <rect x="248" y="64" width="8" height="8" fill="#000000"/>
  <rect x="24" y="72" width="8" height="8" fill="#000000"/>
  <rect x="32" y="72" width="8" height="8" fill="#000000"/>
  <rect x="40" y="72" width="8" height="8" fill="#000000"/>
  <rect x="48" y="72" width="8" height="8" fill="#000000"/>
  <rect x="56" y="72" width="8" height="8" fill="#000000"/>
  <rect x="64" y="72" width="8" height="8" fill="#000000"/>
  <rect x="72" y="72" width="8" height="8" fill="#000000"/>
  <rect x="88" y="72" width="8" height="8" fill="#000000"/>
  <rect x="104" y="72" width="8" height="8" fill="#000000"/>
  <rect x="120" y="72" width="8" height="8" fill="#000000"/>
  <rect x="136" y="72" width="8" height="8" fill="#000000"/>
  <rect x="152" y="72" width="8" height="8" fill="#000000"/>
  <rect x="168" y="72" width="8" height="8" fill="#000000"/>
  <rect x="184" y="72" width="8" height="8" fill="#000000"/>
  <rect x="200" y="72" width="8" height="8" fill="#000000"/>
  <rect x="208" y="72" width="8" height="8" fill="#000000"/>
  <rect x="216" y="72" width="8" height="8" fill="#000000"/>
  <rect x="224" y="72" width="8" height="8" fill="#000000"/>
  <rect x="232" y="72" width="8" height="8" fill="#000000"/>
  <rect x="240" y="72" width="8" height="8" fill="#000000"/>
  <rect x="248" y="72" width="8" height="8" fill="#000000"/>
  <rect x="104" y="80" width="8" height="8" fill="#000000"/>
  <rect x="112" y="80" width="8" height="8" fill="#000000"/>
  <rect x="128" y="80" width="8" height="8" fill="#000000"/>
  <rect x="144" y="80" width="8" height="8" fill="#000000"/>
  <rect x="152" y="80" width="8" height="8" fill="#000000"/>
  <rect x="160" y="80" width="8" height="8" fill="#000000"/>
  <rect x="168" y="80" width="8" height="8" fill="#000000"/>
  <rect x="24" y="88" width="8" height="8" fill="#000000"/>
  <rect x="32" y="88" width="8" height="8" fill="#000000"/>
  <rect x="56" y="88" width="8" height="8" fill="#000000"/>
  <rect x="64" y="88" width="8" height="8" fill="#000000"/>
  <rect x="72" y="88" width="8" height="8" fill="#000000"/>
  <rect x="104" y="88" width="8" height="8" fill="#000000"/>
  <rect x="120" y="88" width="8" height="8" fill="#000000"/>
  <rect x="128" y="88" width="8" height="8" fill="#000000"/>
  <rect x="160" y="88" width="8" height="8" fill="#000000"/>
  <rect x="168" y="88" width="8" height="8" fill="#000000"/>
  <rect x="176" y="88" width="8" height="8" fill="#000000"/>
  <rect x="208" y="88" width="8" height="8" fill="#000000"/>
  <rect x="224" y="88" width="8" height="8" fill="#000000"/>
  <rect x="232" y="88" width="8" height="8" fill="#000000"/>
  <rect x="240" y="88" width="8" height="8" fill="#000000"/>
  <rect x="248" y="88" width="8" height="8" fill="#000000"/>
  <rect x="24" y="96" width="8" height="8" fill="#000000"/>
  <rect x="32" y="96" width="8" height="8" fill="#000000"/>
  <rect x="48" y="96" width="8" height="8" fill="#000000"/>
  <rect x="64" y="96" width="8" height="8" fill="#000000"/>
  <rect x="80" y="96" width="8" height="8" fill="#000000"/>
  <rect x="88" y="96" width="8" height="8" fill="#000000"/>
  <rect x="128" y="96" width="8" height="8" fill="#000000"/>
  <rect x="136" y="96" width="8" height="8" fill="#000000"/>
  <rect x="152" y="96" width="8" height="8" fill="#000000"/>
  <rect x="160" y="96" width="8" height="8" fill="#000000"/>
  <rect x="184" y="96" width="8" height="8" fill="#000000"/>
  <rect x="192" y="96" width="8" height="8" fill="#000000"/>
  <rect x="200" y="96" width="8" height="8" fill="#000000"/>
  <rect x="216" y="96" width="8" height="8" fill="#000000"/>
  <rect x="224" y="96" width="8" height="8" fill="#000000"/>
  <rect x="232" y="96" width="8" height="8" fill="#000000"/>
  <rect x="240" y="96" width="8" height="8" fill="#000000"/>
  <rect x="248" y="96" width="8" height="8" fill="#000000"/>
  <rect x="32" y="104" width="8" height="8" fill="#000000"/>
  <rect x="40" y="104" width="8" height="8" fill="#000000"/>
  <rect x="56" y="104" width="8" height="8" fill="#000000"/>
  <rect x="64" y="104" width="8" height="8" fill="#000000"/>
  <rect x="72" y="104" width="8" height="8" fill="#000000"/>
  <rect x="80" y="104" width="8" height="8" fill="#000000"/>
  <rect x="96" y="104" width="8" height="8" fill="#000000"/>
  <rect x="104" y="104" width="8" height="8" fill="#000000"/>
  <rect x="152" y="104" width="8" height="8" fill="#000000"/>
  <rect x="168" y="104" width="8" height="8" fill="#000000"/>
  <rect x="184" y="104" width="8" height="8" fill="#000000"/>
  <rect x="192" y="104" width="8" height="8" fill="#000000"/>
  <rect x="200" y="104" width="8" height="8" fill="#000000"/>
  <rect x="208" y="104" width="8" height="8" fill="#000000"/>
  <rect x="216" y="104" width="8" height="8" fill="#000000"/>
  <rect x="248" y="104" width="8" height="8" fill="#000000"/>
  <rect x="32" y="112" width="8" height="8" fill="#000000"/>
  <rect x="56" y="112" width="8" height="8" fill="#000000"/>
  <rect x="88" y="112" width="8" height="8" fill="#000000"/>
  <rect x="96" y="112" width="8" height="8" fill="#000000"/>
  <rect x="120" y="112" width="8" height="8" fill="#000000"/>
  <rect x="136" y="112" width="8" height="8" fill="#000000"/>
  <rect x="160" y="112" width="8" height="8" fill="#000000"/>
  <rect x="168" y="112" width="8" height="8" fill="#000000"/>
  <rect x="184" y="112" width="8" height="8" fill="#000000"/>
  <rect x="192" y="112" width="8" height="8" fill="#000000"/>
  <rect x="200" y="112" width="8" height="8" fill="#000000"/>
  <rect x="208" y="112" width="8" height="8" fill="#000000"/>
  <rect x="240" y="112" width="8" height="8" fill="#000000"/>
  <rect x="248" y="112" width="8" height="8" fill="#000000"/>
  <rect x="24" y="120" width="8" height="8" fill="#000000"/>
  <rect x="32" y="120" width="8" height="8" fill="#000000"/>
  <rect x="40" y="120" width="8" height="8" fill="#000000"/>
  <rect x="64" y="120" width="8" height="8" fill="#000000"/>
  <rect x="72" y="120" width="8" height="8" fill="#000000"/>
  <rect x="88" y="120" width="8" height="8" fill="#000000"/>
  <rect x="112" y="120" width="8" height="8" fill="#000000"/>
  <rect x="128" y="120" width="8" height="8" fill="#000000"/>
  <rect x="136" y="120" width="8" height="8" fill="#000000"/>
  <rect x="144" y="120" width="8" height="8" fill="#000000"/>
  <rect x="160" y="120" width="8" height="8" fill="#000000"/>
  <rect x="176" y="120" width="8" height="8" fill="#000000"/>
  <rect x="208" y="120" width="8" height="8" fill="#000000"/>
  <rect x="240" y="120" width="8" height="8" fill="#000000"/>
  <rect x="32" y="128" width="8" height="8" fill="#000000"/>
  <rect x="40" y="128" width="8" height="8" fill="#000000"/>
  <rect x="56" y="128" width="8" height="8" fill="#000000"/>
  <rect x="80" y="128" width="8" height="8" fill="#000000"/>
  <rect x="88" y="128" width="8" height="8" fill="#000000"/>
  <rect x="104" y="128" width="8" height="8" fill="#000000"/>
  <rect x="120" y="128" width="8" height="8" fill="#000000"/>
  <rect x="168" y="128" width="8" height="8" fill="#000000"/>
  <rect x="184" y="128" width="8" height="8" fill="#000000"/>
  <rect x="200" y="128" width="8" height="8" fill="#000000"/>
  <rect x="216" y="128" width="8" height="8" fill="#000000"/>
  <rect x="224" y="128" width="8" height="8" fill="#000000"/>
  <rect x="240" y="128" width="8" height="8" fill="#000000"/>
  <rect x="248" y="128" width="8" height="8" fill="#000000"/>
  <rect x="24" y="136" width="8" height="8" fill="#000000"/>
  <rect x="72" y="136" width="8" height="8" fill="#000000"/>
  <rect x="80" y="136" width="8" height="8" fill="#000000"/>
  <rect x="88" y="136" width="8" height="8" fill="#000000"/>
  <rect x="96" y="136" width="8" height="8" fill="#000000"/>
  <rect x="104" y="136" width="8" height="8" fill="#000000"/>
  <rect x="112" y="136" width="8" height="8" fill="#000000"/>
  <rect x="120" y="136" width="8" height="8" fill="#000000"/>
  <rect x="128" y="136" width="8" height="8" fill="#000000"/>
  <rect x="136" y="136" width="8" height="8" fill="#000000"/>
  <rect x="144" y="136" width="8" height="8" fill="#000000"/>
  <rect x="152" y="136" width="8" height="8" fill="#000000"/>
  <rect x="160" y="136" width="8" height="8" fill="#000000"/>
  <rect x="208" y="136" width="8" height="8" fill="#000000"/>
  <rect x="216" y="136" width="8" height="8" fill="#000000"/>
  <rect x="232" y="136" width="8" height="8" fill="#000000"/>
  <rect x="248" y="136" width="8" height="8" fill="#000000"/>
  <rect x="48" y="144" width="8" height="8" fill="#000000"/>
  <rect x="64" y="144" width="8" height="8" fill="#000000"/>
  <rect x="80" y="144" width="8" height="8" fill="#000000"/>
  <rect x="88" y="144" width="8" height="8" fill="#000000"/>
  <rect x="96" y="144" width="8" height="8" fill="#000000"/>
  <rect x="112" y="144" width="8" height="8" fill="#000000"/>
  <rect x="128" y="144" width="8" height="8" fill="#000000"/>
  <rect x="152" y="144" width="8" height="8" fill="#000000"/>
  <rect x="160" y="144" width="8" height="8" fill="#000000"/>
  <rect x="168" y="144" width="8" height="8" fill="#000000"/>
  <rect x="176" y="144" width="8" height="8" fill="#000000"/>
  <rect x="192" y="144" width="8" height="8" fill="#000000"/>
  <rect x="216" y="144" width="8" height="8" fill="#000000"/>
  <rect x="240" y="144" width="8" height="8" fill="#000000"/>
  <rect x="248" y="144" width="8" height="8" fill="#000000"/>
  <rect x="32" y="152" width="8" height="8" fill="#000000"/>
  <rect x="48" y="152" width="8" height="8" fill="#000000"/>
  <rect x="72" y="152" width="8" height="8" fill="#000000"/>
  <rect x="88" y="152" width="8" height="8" fill="#000000"/>
  <rect x="104" y="152" width="8" height="8" fill="#000000"/>
  <rect x="120" y="152" width="8" height="8" fill="#000000"/>
  <rect x="128" y="152" width="8" height="8" fill="#000000"/>
  <rect x="152" y="152" width="8" height="8" fill="#000000"/>
  <rect x="160" y="152" width="8" height="8" fill="#000000"/>
  <rect x="224" y="152" width="8" height="8" fill="#000000"/>
  <rect x="240" y="152" width="8" height="8" fill="#000000"/>
  <rect x="24" y="160" width="8" height="8" fill="#000000"/>
  <rect x="32" y="160" width="8" height="8" fill="#000000"/>
  <rect x="40" y="160" width="8" height="8" fill="#000000"/>
  <rect x="56" y="160" width="8" height="8" fill="#000000"/>
  <rect x="64" y="160" width="8" height="8" fill="#000000"/>
  <rect x="88" y="160" width="8" height="8" fill="#000000"/>
  <rect x="96" y="160" width="8" height="8" fill="#000000"/>
  <rect x="104" y="160" width="8" height="8" fill="#000000"/>
  <rect x="128" y="160" width="8" height="8" fill="#000000"/>
  <rect x="136" y="160" width="8" height="8" fill="#000000"/>
  <rect x="144" y="160" width="8" height="8" fill="#000000"/>
  <rect x="152" y="160" width="8" height="8" fill="#000000"/>
  <rect x="184" y="160" width="8" height="8" fill="#000000"/>
  <rect x="192" y="160" width="8" height="8" fill="#000000"/>
  <rect x="200" y="160" width="8" height="8" fill="#000000"/>
  <rect x="216" y="160" width="8" height="8" fill="#000000"/>
  <rect x="240" y="160" width="8" height="8" fill="#000000"/>
  <rect x="248" y="160" width="8" height="8" fill="#000000"/>
  <rect x="56" y="168" width="8" height="8" fill="#000000"/>
  <rect x="72" y="168" width="8" height="8" fill="#000000"/>
  <rect x="88" y="168" width="8" height="8" fill="#000000"/>
  <rect x="144" y="168" width="8" height="8" fill="#000000"/>
  <rect x="160" y="168" width="8" height="8" fill="#000000"/>
  <rect x="184" y="168" width="8" height="8" fill="#000000"/>
  <rect x="192" y="168" width="8" height="8" fill="#000000"/>
  <rect x="200" y="168" width="8" height="8" fill="#000000"/>
  <rect x="208" y="168" width="8" height="8" fill="#000000"/>
  <rect x="216" y="168" width="8" height="8" fill="#000000"/>
  <rect x="224" y="168" width="8" height="8" fill="#000000"/>
  <rect x="232" y="168" width="8" height="8" fill="#000000"/>
  <rect x="248" y="168" width="8" height="8" fill="#000000"/>
  <rect x="88" y="176" width="8" height="8" fill="#000000"/>
  <rect x="104" y="176" width="8" height="8" fill="#000000"/>
  <rect x="120" y="176" width="8" height="8" fill="#000000"/>
  <rect x="136" y="176" width="8" height="8" fill="#000000"/>
  <rect x="144" y="176" width="8" height="8" fill="#000000"/>
  <rect x="160" y="176" width="8" height="8" fill="#000000"/>
  <rect x="176" y="176" width="8" height="8" fill="#000000"/>
  <rect x="200" y="176" width="8" height="8" fill="#000000"/>
  <rect x="208" y="176" width="8" height="8" fill="#000000"/>
  <rect x="240" y="176" width="8" height="8" fill="#000000"/>
  <rect x="248" y="176" width="8" height="8" fill="#000000"/>
  <rect x="24" y="184" width="8" height="8" fill="#000000"/>
  <rect x="32" y="184" width="8" height="8" fill="#000000"/>
  <rect x="48" y="184" width="8" height="8" fill="#000000"/>
  <rect x="56" y="184" width="8" height="8" fill="#000000"/>
  <rect x="72" y="184" width="8" height="8" fill="#000000"/>
  <rect x="80" y="184" width="8" height="8" fill="#000000"/>
  <rect x="96" y="184" width="8" height="8" fill="#000000"/>
  <rect x="104" y="184" width="8" height="8" fill="#000000"/>
  <rect x="112" y="184" width="8" height="8" fill="#000000"/>
  <rect x="128" y="184" width="8" height="8" fill="#000000"/>
  <rect x="136" y="184" width="8" height="8" fill="#000000"/>
  <rect x="160" y="184" width="8" height="8" fill="#000000"/>
  <rect x="176" y="184" width="8" height="8" fill="#000000"/>
  <rect x="184" y="184" width="8" height="8" fill="#000000"/>
  <rect x="192" y="184" width="8" height="8" fill="#000000"/>
  <rect x="200" y="184" width="8" height="8" fill="#000000"/>
  <rect x="208" y="184" width="8" height="8" fill="#000000"/>
  <rect x="216" y="184" width="8" height="8" fill="#000000"/>
  <rect x="224" y="184" width="8" height="8" fill="#000000"/>
  <rect x="248" y="184" width="8" height="8" fill="#000000"/>
  <rect x="88" y="192" width="8" height="8" fill="#000000"/>
  <rect x="120" y="192" width="8" height="8" fill="#000000"/>
  <rect x="144" y="192" width="8" height="8" fill="#000000"/>
  <rect x="152" y="192" width="8" height="8" fill="#000000"/>
  <rect x="184" y="192" width="8" height="8" fill="#000000"/>
  <rect x="216" y="192" width="8" height="8" fill="#000000"/>
  <rect x="248" y="192" width="8" height="8" fill="#000000"/>
  <rect x="24" y="200" width="8" height="8" fill="#000000"/>
  <rect x="32" y="200" width="8" height="8" fill="#000000"/>
  <rect x="40" y="200" width="8" height="8" fill="#000000"/>
  <rect x="48" y="200" width="8" height="8" fill="#000000"/>
  <rect x="56" y="200" width="8" height="8" fill="#000000"/>
  <rect x="64" y="200" width="8" height="8" fill="#000000"/>
  <rect x="72" y="200" width="8" height="8" fill="#000000"/>
  <rect x="112" y="200" width="8" height="8" fill="#000000"/>
  <rect x="120" y="200" width="8" height="8" fill="#000000"/>
  <rect x="128" y="200" width="8" height="8" fill="#000000"/>
  <rect x="136" y="200" width="8" height="8" fill="#000000"/>
  <rect x="144" y="200" width="8" height="8" fill="#000000"/>
  <rect x="160" y="200" width="8" height="8" fill="#000000"/>
  <rect x="176" y="200" width="8" height="8" fill="#000000"/>
  <rect x="184" y="200" width="8" height="8" fill="#000000"/>
  <rect x="200" y="200" width="8" height="8" fill="#000000"/>
  <rect x="216" y="200" width="8" height="8" fill="#000000"/>
  <rect x="224" y="200" width="8" height="8" fill="#000000"/>
  <rect x="232" y="200" width="8" height="8" fill="#000000"/>
  <rect x="248" y="200" width="8" height="8" fill="#000000"/>
  <rect x="24" y="208" width="8" height="8" fill="#000000"/>
  <rect x="72" y="208" width="8" height="8" fill="#000000"/>
  <rect x="88" y="208" width="8" height="8" fill="#000000"/>
  <rect x="96" y="208" width="8" height="8" fill="#000000"/>
  <rect x="104" y="208" width="8" height="8" fill="#000000"/>
  <rect x="112" y="208" width="8" height="8" fill="#000000"/>
  <rect x="128" y="208" width="8" height="8" fill="#000000"/>
  <rect x="152" y="208" width="8" height="8" fill="#000000"/>
  <rect x="160" y="208" width="8" height="8" fill="#000000"/>
  <rect x="184" y="208" width="8" height="8" fill="#000000"/>
  <rect x="216" y="208" width="8" height="8" fill="#000000"/>
  <rect x="248" y="208" width="8" height="8" fill="#000000"/>
  <rect x="24" y="216" width="8" height="8" fill="#000000"/>
  <rect x="40" y="216" width="8" height="8" fill="#000000"/>
  <rect x="48" y="216" width="8" height="8" fill="#000000"/>
  <rect x="56" y="216" width="8" height="8" fill="#000000"/>
  <rect x="72" y="216" width="8" height="8" fill="#000000"/>
  <rect x="88" y="216" width="8" height="8" fill="#000000"/>
  <rect x="96" y="216" width="8" height="8" fill="#000000"/>
  <rect x="104" y="216" width="8" height="8" fill="#000000"/>
  <rect x="120" y="216" width="8" height="8" fill="#000000"/>
  <rect x="128" y="216" width="8" height="8" fill="#000000"/>
  <rect x="152" y="216" width="8" height="8" fill="#000000"/>
  <rect x="160" y="216" width="8" height="8" fill="#000000"/>
  <rect x="168" y="216" width="8" height="8" fill="#000000"/>
  <rect x="176" y="216" width="8" height="8" fill="#000000"/>
  <rect x="184" y="216" width="8" height="8" fill="#000000"/>
  <rect x="192" y="216" width="8" height="8" fill="#000000"/>
  <rect x="200" y="216" width="8" height="8" fill="#000000"/>
  <rect x="208" y="216" width="8" height="8" fill="#000000"/>
  <rect x="216" y="216" width="8" height="8" fill="#000000"/>
  <rect x="24" y="224" width="8" height="8" fill="#000000"/>
  <rect x="40" y="224" width="8" height="8" fill="#000000"/>
  <rect x="48" y="224" width="8" height="8" fill="#000000"/>
  <rect x="56" y="224" width="8" height="8" fill="#000000"/>
  <rect x="72" y="224" width="8" height="8" fill="#000000"/>
  <rect x="96" y="224" width="8" height="8" fill="#000000"/>
  <rect x="128" y="224" width="8" height="8" fill="#000000"/>
  <rect x="136" y="224" width="8" height="8" fill="#000000"/>
  <rect x="144" y="224" width="8" height="8" fill="#000000"/>
  <rect x="152" y="224" width="8" height="8" fill="#000000"/>
  <rect x="160" y="224" width="8" height="8" fill="#000000"/>
  <rect x="176" y="224" width="8" height="8" fill="#000000"/>
  <rect x="208" y="224" width="8" height="8" fill="#000000"/>
  <rect x="224" y="224" width="8" height="8" fill="#000000"/>
  <rect x="232" y="224" width="8" height="8" fill="#000000"/>
  <rect x="248" y="224" width="8" height="8" fill="#000000"/>
  <rect x="24" y="232" width="8" height="8" fill="#000000"/>
  <rect x="40" y="232" width="8" height="8" fill="#000000"/>
  <rect x="48" y="232" width="8" height="8" fill="#000000"/>
  <rect x="56" y="232" width="8" height="8" fill="#000000"/>
  <rect x="72" y="232" width="8" height="8" fill="#000000"/>
  <rect x="96" y="232" width="8" height="8" fill="#000000"/>
  <rect x="104" y="232" width="8" height="8" fill="#000000"/>
  <rect x="144" y="232" width="8" height="8" fill="#000000"/>
  <rect x="160" y="232" width="8" height="8" fill="#000000"/>
  <rect x="168" y="232" width="8" height="8" fill="#000000"/>
  <rect x="176" y="232" width="8" height="8" fill="#000000"/>
  <rect x="184" y="232" width="8" height="8" fill="#000000"/>
  <rect x="208" y="232" width="8" height="8" fill="#000000"/>
  <rect x="224" y="232" width="8" height="8" fill="#000000"/>
  <rect x="240" y="232" width="8" height="8" fill="#000000"/>
  <rect x="248" y="232" width="8" height="8" fill="#000000"/>
  <rect x="24" y="240" width="8" height="8" fill="#000000"/>
  <rect x="72" y="240" width="8" height="8" fill="#000000"/>
  <rect x="88" y="240" width="8" height="8" fill="#000000"/>
  <rect x="96" y="240" width="8" height="8" fill="#000000"/>
  <rect x="120" y="240" width="8" height="8" fill="#000000"/>
  <rect x="136" y="240" width="8" height="8" fill="#000000"/>
  <rect x="144" y="240" width="8" height="8" fill="#000000"/>
  <rect x="160" y="240" width="8" height="8" fill="#000000"/>
  <rect x="168" y="240" width="8" height="8" fill="#000000"/>
  <rect x="184" y="240" width="8" height="8" fill="#000000"/>
  <rect x="192" y="240" width="8" height="8" fill="#000000"/>
  <rect x="200" y="240" width="8" height="8" fill="#000000"/>
  <rect x="216" y="240" width="8" height="8" fill="#000000"/>
  <rect x="240" y="240" width="8" height="8" fill="#000000"/>
  <rect x="248" y="240" width="8" height="8" fill="#000000"/>
  <rect x="24" y="248" width="8" height="8" fill="#000000"/>
  <rect x="32" y="248" width="8" height="8" fill="#000000"/>
  <rect x="40" y="248" width="8" height="8" fill="#000000"/>
  <rect x="48" y="248" width="8" height="8" fill="#000000"/>
  <rect x="56" y="248" width="8" height="8" fill="#000000"/>
  <rect x="64" y="248" width="8" height="8" fill="#000000"/>
  <rect x="72" y="248" width="8" height="8" fill="#000000"/>
  <rect x="88" y="248" width="8" height="8" fill="#000000"/>
  <rect x="112" y="248" width="8" height="8" fill="#000000"/>
  <rect x="128" y="248" width="8" height="8" fill="#000000"/>
  <rect x="136" y="248" width="8" height="8" fill="#000000"/>
  <rect x="152" y="248" width="8" height="8" fill="#000000"/>
  <rect x="160" y="248" width="8" height="8" fill="#000000"/>
  <rect x="176" y="248" width="8" height="8" fill="#000000"/>
  <rect x="184" y="248" width="8" height="8" fill="#000000"/>
  <rect x="208" y="248" width="8" height="8" fill="#000000"/>
  <rect x="216" y="248" width="8" height="8" fill="#000000"/>
  <rect x="240" y="248" width="8" height="8" fill="#000000"/>
</svg>